<mxfile host="app.diagrams.net" modified="2023-10-20T14:51:10.183Z" agent="Mozilla/5.0 (Windows NT 10.0; Win64; x64) AppleWebKit/537.36 (KHTML, like Gecko) Chrome/117.0.0.0 Safari/537.36 OPR/103.0.0.0" etag="uaJt99W_68YPh8n0-0Hm" version="22.0.5" type="device">
  <diagram name="Page-1" id="ETEOYPU1zhEMLHCCTLsT">
    <mxGraphModel dx="1992" dy="1066" grid="1" gridSize="10" guides="1" tooltips="1" connect="1" arrows="1" fold="1" page="1" pageScale="1" pageWidth="850" pageHeight="1100" math="0" shadow="0">
      <root>
        <mxCell id="0" />
        <mxCell id="1" parent="0" />
        <mxCell id="gmBy36aGVrvOryWGym2Z-1" value="" style="strokeWidth=1;shadow=0;dashed=0;align=center;html=1;shape=mxgraph.mockup.containers.browserWindow;rSize=0;strokeColor2=#008cff;strokeColor3=#c4c4c4;mainText=,;recursiveResize=0;labelBackgroundColor=#FFFFFF;fillColor=#000000;" vertex="1" parent="1">
          <mxGeometry x="42.28" y="110" width="760" height="1050" as="geometry" />
        </mxCell>
        <mxCell id="gmBy36aGVrvOryWGym2Z-2" value="Portfolio" style="strokeWidth=1;shadow=0;dashed=0;align=center;html=1;shape=mxgraph.mockup.containers.anchor;fontSize=17;fontColor=#666666;align=left;whiteSpace=wrap;" vertex="1" parent="gmBy36aGVrvOryWGym2Z-1">
          <mxGeometry x="60" y="12" width="110" height="26" as="geometry" />
        </mxCell>
        <mxCell id="gmBy36aGVrvOryWGym2Z-3" value="https://www.ObedOduro_Portfolio.com" style="strokeWidth=1;shadow=0;dashed=0;align=center;html=1;shape=mxgraph.mockup.containers.anchor;rSize=0;fontSize=17;fontColor=#666666;align=left;" vertex="1" parent="gmBy36aGVrvOryWGym2Z-1">
          <mxGeometry x="130" y="60" width="250" height="26" as="geometry" />
        </mxCell>
        <mxCell id="gmBy36aGVrvOryWGym2Z-4" value="" style="verticalLabelPosition=bottom;shadow=0;dashed=0;align=center;html=1;verticalAlign=top;strokeWidth=1;shape=mxgraph.mockup.graphics.simpleIcon;strokeColor=#999999;" vertex="1" parent="gmBy36aGVrvOryWGym2Z-1">
          <mxGeometry x="642.5" y="180" width="50" height="30" as="geometry" />
        </mxCell>
        <mxCell id="gmBy36aGVrvOryWGym2Z-11" style="edgeStyle=orthogonalEdgeStyle;rounded=0;orthogonalLoop=1;jettySize=auto;html=1;exitX=0.75;exitY=0;exitDx=0;exitDy=0;" edge="1" parent="gmBy36aGVrvOryWGym2Z-1" source="gmBy36aGVrvOryWGym2Z-5" target="gmBy36aGVrvOryWGym2Z-1">
          <mxGeometry relative="1" as="geometry" />
        </mxCell>
        <mxCell id="gmBy36aGVrvOryWGym2Z-5" value="Picture" style="text;html=1;strokeColor=none;fillColor=none;align=center;verticalAlign=middle;whiteSpace=wrap;rounded=0;" vertex="1" parent="gmBy36aGVrvOryWGym2Z-1">
          <mxGeometry x="630" y="180" width="75" height="30" as="geometry" />
        </mxCell>
        <mxCell id="gmBy36aGVrvOryWGym2Z-12" value="" style="verticalLabelPosition=bottom;shadow=0;dashed=0;align=center;html=1;verticalAlign=top;strokeWidth=1;shape=mxgraph.mockup.graphics.simpleIcon;strokeColor=#999999;" vertex="1" parent="gmBy36aGVrvOryWGym2Z-1">
          <mxGeometry x="70" y="170" width="210" height="30" as="geometry" />
        </mxCell>
        <mxCell id="gmBy36aGVrvOryWGym2Z-13" value="" style="verticalLabelPosition=bottom;shadow=0;dashed=0;align=center;html=1;verticalAlign=top;strokeWidth=1;shape=mxgraph.mockup.graphics.simpleIcon;strokeColor=#999999;" vertex="1" parent="gmBy36aGVrvOryWGym2Z-1">
          <mxGeometry x="70" y="210" width="210" height="20" as="geometry" />
        </mxCell>
        <mxCell id="gmBy36aGVrvOryWGym2Z-14" value="" style="verticalLabelPosition=bottom;shadow=0;dashed=0;align=center;html=1;verticalAlign=top;strokeWidth=1;shape=mxgraph.mockup.graphics.simpleIcon;strokeColor=#999999;" vertex="1" parent="gmBy36aGVrvOryWGym2Z-1">
          <mxGeometry x="40" y="300" width="310" height="20" as="geometry" />
        </mxCell>
        <mxCell id="gmBy36aGVrvOryWGym2Z-15" value="" style="verticalLabelPosition=bottom;shadow=0;dashed=0;align=center;html=1;verticalAlign=top;strokeWidth=1;shape=mxgraph.mockup.graphics.simpleIcon;strokeColor=#999999;" vertex="1" parent="gmBy36aGVrvOryWGym2Z-1">
          <mxGeometry x="110" y="250" width="40" height="20" as="geometry" />
        </mxCell>
        <mxCell id="gmBy36aGVrvOryWGym2Z-26" value="" style="verticalLabelPosition=bottom;shadow=0;dashed=0;align=center;html=1;verticalAlign=top;strokeWidth=1;shape=mxgraph.mockup.graphics.simpleIcon;strokeColor=#999999;" vertex="1" parent="gmBy36aGVrvOryWGym2Z-1">
          <mxGeometry x="335" y="120" width="215" height="20" as="geometry" />
        </mxCell>
        <mxCell id="gmBy36aGVrvOryWGym2Z-27" value="" style="verticalLabelPosition=bottom;shadow=0;dashed=0;align=center;html=1;verticalAlign=top;strokeWidth=1;shape=mxgraph.mockup.graphics.simpleIcon;strokeColor=#999999;" vertex="1" parent="gmBy36aGVrvOryWGym2Z-1">
          <mxGeometry x="10" y="120" width="50" height="30" as="geometry" />
        </mxCell>
        <mxCell id="gmBy36aGVrvOryWGym2Z-28" value="LOGO" style="text;html=1;strokeColor=none;fillColor=none;align=center;verticalAlign=middle;whiteSpace=wrap;rounded=0;" vertex="1" parent="gmBy36aGVrvOryWGym2Z-1">
          <mxGeometry x="5" y="120" width="60" height="30" as="geometry" />
        </mxCell>
        <mxCell id="gmBy36aGVrvOryWGym2Z-29" value="MENU" style="text;html=1;strokeColor=none;fillColor=none;align=center;verticalAlign=middle;whiteSpace=wrap;rounded=0;" vertex="1" parent="gmBy36aGVrvOryWGym2Z-1">
          <mxGeometry x="420" y="115" width="60" height="30" as="geometry" />
        </mxCell>
        <mxCell id="gmBy36aGVrvOryWGym2Z-30" value="Name" style="text;html=1;strokeColor=none;fillColor=none;align=center;verticalAlign=middle;whiteSpace=wrap;rounded=0;" vertex="1" parent="gmBy36aGVrvOryWGym2Z-1">
          <mxGeometry x="140" y="170" width="60" height="30" as="geometry" />
        </mxCell>
        <mxCell id="gmBy36aGVrvOryWGym2Z-31" value="Developer" style="text;html=1;strokeColor=none;fillColor=none;align=center;verticalAlign=middle;whiteSpace=wrap;rounded=0;" vertex="1" parent="gmBy36aGVrvOryWGym2Z-1">
          <mxGeometry x="150" y="205" width="60" height="30" as="geometry" />
        </mxCell>
        <mxCell id="gmBy36aGVrvOryWGym2Z-32" value="Cv" style="text;html=1;strokeColor=none;fillColor=none;align=center;verticalAlign=middle;whiteSpace=wrap;rounded=0;" vertex="1" parent="gmBy36aGVrvOryWGym2Z-1">
          <mxGeometry x="100" y="245" width="60" height="30" as="geometry" />
        </mxCell>
        <mxCell id="gmBy36aGVrvOryWGym2Z-33" value="Social Media Links" style="text;html=1;strokeColor=none;fillColor=none;align=center;verticalAlign=middle;whiteSpace=wrap;rounded=0;" vertex="1" parent="gmBy36aGVrvOryWGym2Z-1">
          <mxGeometry x="140" y="295" width="120" height="30" as="geometry" />
        </mxCell>
        <mxCell id="gmBy36aGVrvOryWGym2Z-34" value="" style="verticalLabelPosition=bottom;shadow=0;dashed=0;align=center;html=1;verticalAlign=top;strokeWidth=1;shape=mxgraph.mockup.graphics.simpleIcon;strokeColor=#999999;" vertex="1" parent="gmBy36aGVrvOryWGym2Z-1">
          <mxGeometry x="310" y="340" width="390" height="130" as="geometry" />
        </mxCell>
        <mxCell id="gmBy36aGVrvOryWGym2Z-35" value="" style="verticalLabelPosition=bottom;shadow=0;dashed=0;align=center;html=1;verticalAlign=top;strokeWidth=1;shape=mxgraph.mockup.graphics.simpleIcon;strokeColor=#999999;" vertex="1" parent="gmBy36aGVrvOryWGym2Z-1">
          <mxGeometry x="20" y="340" width="170" height="130" as="geometry" />
        </mxCell>
        <mxCell id="gmBy36aGVrvOryWGym2Z-36" value="My Picture" style="text;html=1;strokeColor=none;fillColor=none;align=center;verticalAlign=middle;whiteSpace=wrap;rounded=0;" vertex="1" parent="gmBy36aGVrvOryWGym2Z-1">
          <mxGeometry x="60" y="390" width="60" height="30" as="geometry" />
        </mxCell>
        <mxCell id="gmBy36aGVrvOryWGym2Z-37" value="About Me" style="text;html=1;strokeColor=none;fillColor=none;align=center;verticalAlign=middle;whiteSpace=wrap;rounded=0;" vertex="1" parent="gmBy36aGVrvOryWGym2Z-1">
          <mxGeometry x="450" y="340" width="60" height="30" as="geometry" />
        </mxCell>
        <mxCell id="gmBy36aGVrvOryWGym2Z-38" value="A brief explanation of my experience" style="text;html=1;strokeColor=none;fillColor=none;align=center;verticalAlign=middle;whiteSpace=wrap;rounded=0;" vertex="1" parent="gmBy36aGVrvOryWGym2Z-1">
          <mxGeometry x="390" y="390" width="250" height="30" as="geometry" />
        </mxCell>
        <mxCell id="gmBy36aGVrvOryWGym2Z-41" value="" style="verticalLabelPosition=bottom;shadow=0;dashed=0;align=center;html=1;verticalAlign=top;strokeWidth=1;shape=mxgraph.mockup.graphics.simpleIcon;strokeColor=#999999;" vertex="1" parent="gmBy36aGVrvOryWGym2Z-1">
          <mxGeometry x="30" y="560" width="130" height="100" as="geometry" />
        </mxCell>
        <mxCell id="gmBy36aGVrvOryWGym2Z-66" value="" style="verticalLabelPosition=bottom;shadow=0;dashed=0;align=center;html=1;verticalAlign=top;strokeWidth=1;shape=mxgraph.mockup.graphics.simpleIcon;strokeColor=#999999;" vertex="1" parent="gmBy36aGVrvOryWGym2Z-1">
          <mxGeometry x="240" y="560" width="120" height="100" as="geometry" />
        </mxCell>
        <mxCell id="gmBy36aGVrvOryWGym2Z-67" value="" style="verticalLabelPosition=bottom;shadow=0;dashed=0;align=center;html=1;verticalAlign=top;strokeWidth=1;shape=mxgraph.mockup.graphics.simpleIcon;strokeColor=#999999;" vertex="1" parent="gmBy36aGVrvOryWGym2Z-1">
          <mxGeometry x="420" y="560" width="130" height="100" as="geometry" />
        </mxCell>
        <mxCell id="gmBy36aGVrvOryWGym2Z-68" value="" style="verticalLabelPosition=bottom;shadow=0;dashed=0;align=center;html=1;verticalAlign=top;strokeWidth=1;shape=mxgraph.mockup.graphics.simpleIcon;strokeColor=#999999;" vertex="1" parent="gmBy36aGVrvOryWGym2Z-1">
          <mxGeometry x="600" y="560" width="110" height="100" as="geometry" />
        </mxCell>
        <mxCell id="gmBy36aGVrvOryWGym2Z-69" value="Web development" style="text;html=1;strokeColor=none;fillColor=none;align=center;verticalAlign=middle;whiteSpace=wrap;rounded=0;" vertex="1" parent="gmBy36aGVrvOryWGym2Z-1">
          <mxGeometry x="60" y="595" width="60" height="30" as="geometry" />
        </mxCell>
        <mxCell id="gmBy36aGVrvOryWGym2Z-70" value="API Integration" style="text;html=1;strokeColor=none;fillColor=none;align=center;verticalAlign=middle;whiteSpace=wrap;rounded=0;" vertex="1" parent="gmBy36aGVrvOryWGym2Z-1">
          <mxGeometry x="270" y="595" width="60" height="30" as="geometry" />
        </mxCell>
        <mxCell id="gmBy36aGVrvOryWGym2Z-71" value="GIT" style="text;html=1;strokeColor=none;fillColor=none;align=center;verticalAlign=middle;whiteSpace=wrap;rounded=0;" vertex="1" parent="gmBy36aGVrvOryWGym2Z-1">
          <mxGeometry x="455" y="595" width="60" height="30" as="geometry" />
        </mxCell>
        <mxCell id="gmBy36aGVrvOryWGym2Z-72" value="Python" style="text;html=1;strokeColor=none;fillColor=none;align=center;verticalAlign=middle;whiteSpace=wrap;rounded=0;" vertex="1" parent="gmBy36aGVrvOryWGym2Z-1">
          <mxGeometry x="625" y="595" width="60" height="30" as="geometry" />
        </mxCell>
        <mxCell id="gmBy36aGVrvOryWGym2Z-73" value="" style="verticalLabelPosition=bottom;shadow=0;dashed=0;align=center;html=1;verticalAlign=top;strokeWidth=1;shape=mxgraph.mockup.graphics.simpleIcon;strokeColor=#999999;" vertex="1" parent="gmBy36aGVrvOryWGym2Z-1">
          <mxGeometry x="635" y="910" width="50" height="50" as="geometry" />
        </mxCell>
        <mxCell id="gmBy36aGVrvOryWGym2Z-116" value="" style="strokeWidth=1;shadow=0;dashed=0;align=center;html=1;shape=mxgraph.mockup.forms.rrect;fillColor=#ffffff;rSize=0;fontColor=#666666;align=left;spacingLeft=3;strokeColor=#999999;verticalAlign=top;whiteSpace=wrap;" vertex="1" parent="gmBy36aGVrvOryWGym2Z-1">
          <mxGeometry x="20" y="980" width="400" height="40" as="geometry" />
        </mxCell>
        <mxCell id="gmBy36aGVrvOryWGym2Z-109" value="Greeting" style="strokeWidth=1;shadow=0;dashed=0;align=center;html=1;shape=mxgraph.mockup.forms.rrect;fillColor=#ffffff;rSize=0;fontColor=#666666;align=left;spacingLeft=3;strokeColor=#999999;" vertex="1" parent="gmBy36aGVrvOryWGym2Z-1">
          <mxGeometry x="70" y="940" width="350" height="18" as="geometry" />
        </mxCell>
        <mxCell id="gmBy36aGVrvOryWGym2Z-107" value="john@jgraph.com" style="strokeWidth=1;shadow=0;dashed=0;align=center;html=1;shape=mxgraph.mockup.forms.rrect;fillColor=#ffffff;rSize=0;fontColor=#666666;align=left;spacingLeft=3;strokeColor=#999999;" vertex="1" parent="gmBy36aGVrvOryWGym2Z-1">
          <mxGeometry x="70" y="910" width="350" height="18" as="geometry" />
        </mxCell>
        <mxCell id="gmBy36aGVrvOryWGym2Z-110" value="Email" style="strokeWidth=1;shadow=0;dashed=0;align=center;html=1;shape=mxgraph.mockup.forms.anchor;align=right;spacingRight=2;fontColor=#666666;" vertex="1" parent="gmBy36aGVrvOryWGym2Z-1">
          <mxGeometry x="5" y="910" width="50" height="18" as="geometry" />
        </mxCell>
        <mxCell id="gmBy36aGVrvOryWGym2Z-108" value="Subject" style="strokeWidth=1;shadow=0;dashed=0;align=center;html=1;shape=mxgraph.mockup.forms.anchor;align=right;spacingRight=2;fontColor=#666666;" vertex="1" parent="gmBy36aGVrvOryWGym2Z-1">
          <mxGeometry x="10" y="942" width="50" height="18" as="geometry" />
        </mxCell>
        <mxCell id="gmBy36aGVrvOryWGym2Z-117" value="" style="verticalLabelPosition=bottom;shadow=0;dashed=0;align=center;html=1;verticalAlign=top;strokeWidth=1;shape=mxgraph.mockup.graphics.simpleIcon;strokeColor=#999999;" vertex="1" parent="gmBy36aGVrvOryWGym2Z-1">
          <mxGeometry x="160" y="880" width="110" height="20" as="geometry" />
        </mxCell>
        <mxCell id="gmBy36aGVrvOryWGym2Z-118" value="Contact Me" style="text;html=1;strokeColor=none;fillColor=none;align=center;verticalAlign=middle;whiteSpace=wrap;rounded=0;" vertex="1" parent="gmBy36aGVrvOryWGym2Z-1">
          <mxGeometry x="180" y="875" width="70" height="30" as="geometry" />
        </mxCell>
        <mxCell id="gmBy36aGVrvOryWGym2Z-119" value="Skills" style="text;html=1;strokeColor=none;fillColor=none;align=center;verticalAlign=middle;whiteSpace=wrap;rounded=0;" vertex="1" parent="gmBy36aGVrvOryWGym2Z-1">
          <mxGeometry x="632.5" y="920" width="60" height="30" as="geometry" />
        </mxCell>
        <mxCell id="gmBy36aGVrvOryWGym2Z-39" value="" style="verticalLabelPosition=bottom;shadow=0;dashed=0;align=center;html=1;verticalAlign=top;strokeWidth=1;shape=mxgraph.mockup.graphics.simpleIcon;strokeColor=#999999;" vertex="1" parent="gmBy36aGVrvOryWGym2Z-1">
          <mxGeometry x="290" y="530" width="180" height="20" as="geometry" />
        </mxCell>
        <mxCell id="gmBy36aGVrvOryWGym2Z-122" value="" style="verticalLabelPosition=bottom;shadow=0;dashed=0;align=center;html=1;verticalAlign=top;strokeWidth=1;shape=mxgraph.mockup.graphics.simpleIcon;strokeColor=#999999;" vertex="1" parent="gmBy36aGVrvOryWGym2Z-1">
          <mxGeometry x="100" y="730" width="190" height="130" as="geometry" />
        </mxCell>
        <mxCell id="gmBy36aGVrvOryWGym2Z-123" value="" style="verticalLabelPosition=bottom;shadow=0;dashed=0;align=center;html=1;verticalAlign=top;strokeWidth=1;shape=mxgraph.mockup.graphics.simpleIcon;strokeColor=#999999;" vertex="1" parent="gmBy36aGVrvOryWGym2Z-1">
          <mxGeometry x="355" y="730" width="195" height="120" as="geometry" />
        </mxCell>
        <mxCell id="gmBy36aGVrvOryWGym2Z-124" value="" style="verticalLabelPosition=bottom;shadow=0;dashed=0;align=center;html=1;verticalAlign=top;strokeWidth=1;shape=mxgraph.mockup.graphics.simpleIcon;strokeColor=#999999;" vertex="1" parent="gmBy36aGVrvOryWGym2Z-1">
          <mxGeometry x="590" y="730" width="150" height="120" as="geometry" />
        </mxCell>
        <mxCell id="gmBy36aGVrvOryWGym2Z-127" value="GIT &amp;amp; Python" style="text;html=1;strokeColor=none;fillColor=none;align=center;verticalAlign=middle;whiteSpace=wrap;rounded=0;" vertex="1" parent="gmBy36aGVrvOryWGym2Z-1">
          <mxGeometry x="635" y="770" width="60" height="30" as="geometry" />
        </mxCell>
        <mxCell id="gmBy36aGVrvOryWGym2Z-128" value="Web development" style="text;html=1;strokeColor=none;fillColor=none;align=center;verticalAlign=middle;whiteSpace=wrap;rounded=0;" vertex="1" parent="gmBy36aGVrvOryWGym2Z-1">
          <mxGeometry x="165" y="780" width="60" height="30" as="geometry" />
        </mxCell>
        <mxCell id="gmBy36aGVrvOryWGym2Z-129" value="API Integration" style="text;html=1;strokeColor=none;fillColor=none;align=center;verticalAlign=middle;whiteSpace=wrap;rounded=0;" vertex="1" parent="gmBy36aGVrvOryWGym2Z-1">
          <mxGeometry x="420" y="775" width="60" height="30" as="geometry" />
        </mxCell>
        <mxCell id="gmBy36aGVrvOryWGym2Z-7" value="" style="endArrow=classic;html=1;rounded=0;exitX=0.003;exitY=0.653;exitDx=0;exitDy=0;exitPerimeter=0;entryX=1.004;entryY=0.652;entryDx=0;entryDy=0;entryPerimeter=0;strokeColor=#F7F7F7;" edge="1" parent="1" source="gmBy36aGVrvOryWGym2Z-1" target="gmBy36aGVrvOryWGym2Z-1">
          <mxGeometry width="50" height="50" relative="1" as="geometry">
            <mxPoint x="430" y="730" as="sourcePoint" />
            <mxPoint x="480" y="680" as="targetPoint" />
          </mxGeometry>
        </mxCell>
        <mxCell id="gmBy36aGVrvOryWGym2Z-8" value="" style="endArrow=classic;html=1;rounded=0;strokeColor=#F5F5F5;entryX=1;entryY=0.501;entryDx=0;entryDy=0;entryPerimeter=0;" edge="1" parent="1" source="gmBy36aGVrvOryWGym2Z-1" target="gmBy36aGVrvOryWGym2Z-1">
          <mxGeometry width="50" height="50" relative="1" as="geometry">
            <mxPoint x="430" y="550" as="sourcePoint" />
            <mxPoint x="810" y="555" as="targetPoint" />
          </mxGeometry>
        </mxCell>
        <mxCell id="gmBy36aGVrvOryWGym2Z-10" value="" style="endArrow=classic;html=1;rounded=0;exitX=-0.001;exitY=0.321;exitDx=0;exitDy=0;exitPerimeter=0;entryX=1;entryY=0.32;entryDx=0;entryDy=0;entryPerimeter=0;strokeColor=#F7F7F7;" edge="1" parent="1" source="gmBy36aGVrvOryWGym2Z-1" target="gmBy36aGVrvOryWGym2Z-1">
          <mxGeometry width="50" height="50" relative="1" as="geometry">
            <mxPoint x="430" y="360" as="sourcePoint" />
            <mxPoint x="480" y="310" as="targetPoint" />
          </mxGeometry>
        </mxCell>
        <mxCell id="gmBy36aGVrvOryWGym2Z-25" value="" style="edgeStyle=orthogonalEdgeStyle;rounded=0;orthogonalLoop=1;jettySize=auto;html=1;" edge="1" parent="1" target="gmBy36aGVrvOryWGym2Z-12">
          <mxGeometry relative="1" as="geometry">
            <mxPoint x="345" y="250" as="sourcePoint" />
          </mxGeometry>
        </mxCell>
        <mxCell id="gmBy36aGVrvOryWGym2Z-81" value="" style="endArrow=none;dashed=1;html=1;rounded=0;strokeColor=#F7F7F7;exitX=-0.006;exitY=0.832;exitDx=0;exitDy=0;exitPerimeter=0;" edge="1" parent="1" source="gmBy36aGVrvOryWGym2Z-1">
          <mxGeometry width="50" height="50" relative="1" as="geometry">
            <mxPoint x="37.28" y="967" as="sourcePoint" />
            <mxPoint x="800.6400390625" y="980" as="targetPoint" />
            <Array as="points" />
          </mxGeometry>
        </mxCell>
        <mxCell id="gmBy36aGVrvOryWGym2Z-121" value="" style="endArrow=classic;html=1;rounded=0;exitX=-0.002;exitY=0.502;exitDx=0;exitDy=0;exitPerimeter=0;strokeColor=#F5F5F5;" edge="1" parent="1" source="gmBy36aGVrvOryWGym2Z-1">
          <mxGeometry width="50" height="50" relative="1" as="geometry">
            <mxPoint x="41" y="637" as="sourcePoint" />
            <mxPoint x="887.039990234375" y="635" as="targetPoint" />
          </mxGeometry>
        </mxCell>
        <mxCell id="gmBy36aGVrvOryWGym2Z-120" value="My Services" style="text;html=1;strokeColor=none;fillColor=none;align=center;verticalAlign=middle;whiteSpace=wrap;rounded=0;" vertex="1" parent="1">
          <mxGeometry x="372.28" y="635" width="87.72" height="30" as="geometry" />
        </mxCell>
        <mxCell id="gmBy36aGVrvOryWGym2Z-130" value="" style="verticalLabelPosition=bottom;shadow=0;dashed=0;align=center;html=1;verticalAlign=top;strokeWidth=1;shape=mxgraph.mockup.graphics.simpleIcon;strokeColor=#999999;" vertex="1" parent="1">
          <mxGeometry x="330" y="800" width="180" height="30" as="geometry" />
        </mxCell>
        <mxCell id="gmBy36aGVrvOryWGym2Z-131" value="Projects" style="text;html=1;strokeColor=none;fillColor=none;align=center;verticalAlign=middle;whiteSpace=wrap;rounded=0;" vertex="1" parent="1">
          <mxGeometry x="386.14" y="800" width="60" height="30" as="geometry" />
        </mxCell>
      </root>
    </mxGraphModel>
  </diagram>
</mxfile>
